Groupie (2010) 1080p X264 MKV DTS NLSubs

[IMG]http://img697.imageshack.us/img697/1544/frontxp.jpg[/IMG]

PLOT

When a mysterious groupie joins legendary cursed band, "The Dark Knights", 
a series of unexplained murders derails their comeback tour. 
 
http://www.youtube.com/watch?v=rJK_UDZVCEQ

MM:    http://www.moviemeter.nl/film/65036

IMDB:    http://www.imdb.com/title/tt1422653/

Gerne:  Thriller
Subs.:  Dutch (selectable)

INFO

      Format : Matroska
      File size : 6.56 GiB
      Duration : 1h 19mn
      Overall bit rate : 11.9 Mbps
      Encoded date : UTC 2010-10-06 13:25:37
      Writing application : mkvmerge v3.3.0 ('Language') built on Mar 24 2010 14:59:24
      Writing library : libebml v0.8.0 + libmatroska v0.9.0
   Video #2
      ID : 2
      Format : AVC
      Format/Info : Advanced Video Codec
      Format profile : High@L4.1
      Format settings, CABAC : Yes
      Format settings, ReFrames : 4 frames
      Muxing mode : Container profile=Unknown@4.1
      Codec ID : V_MPEG4/ISO/AVC
      Duration : 1h 19mn
      Bit rate : 10.1 Mbps
      Nominal bit rate : 10.4 Mbps
      Width : 1 920 pixels
      Height : 1 080 pixels
      Display aspect ratio : 16:9
      Frame rate : 23.976 fps
      Resolution : 24 bits
      Colorimetry : 4:2:0
      Scan type : Progressive
      Bits/(Pixel*Frame) : 0.203
      Stream size : 5.59 GiB (85%)
      Writing library : x264 core 105 r1732 2b04482
      Encoding settings : cabac=1 / ref=4 / deblock=1:0:0 / analyse=0x3:0x133 / me=umh / subme=7 / 
psy=1 / psy_rd=1.00:0.00 / mixed_ref=1 / me_range=16 / chroma_me=1 / trellis=1 / 8x8dct=1 / cqm=0 / 
deadzone=21,11 / fast_pskip=0 / chroma_qp_offset=-2 / threads=12 / sliced_threads=0 / nr=0 / 
decimate=1 / interlaced=0 / constrained_intra=0 / bframes=3 / b_pyramid=2 / b_adapt=1 / b_bias=0 / 
direct=1 / weightb=1 / open_gop=0 / weightp=2 / keyint=250 / keyint_min=23 / scenecut=40 / 
intra_refresh=0 / rc_lookahead=40 / rc=2pass / mbtree=1 / bitrate=10352 / ratetol=1.0 / qcomp=0.60 / 
qpmin=10 / qpmax=51 / qpstep=4 / cplxblur=20.0 / qblur=0.5 / ip_ratio=1.40 / aq=1:1.00
      Language : English
   Audio #1
      ID : 1
      Format : DTS
      Format/Info : Digital Theater Systems
      Codec ID : A_DTS
      Duration : 1h 19mn
      Bit rate mode : Constant
      Bit rate : 1 510 Kbps
      Channel(s) : 6 channels
      Channel positions : Front: L C R, Surround: L R, LFE
      Sampling rate : 48.0 KHz
      Resolution : 16 bits
      Stream size : 855 MiB (13%)
      Language : English
   Text #3
      ID : 3
      Format : UTF-8
      Codec ID : S_TEXT/UTF8
      Codec ID/Info : UTF-8 Plain Text
      Language : Dutch